<?xml version="1.0" encoding="UTF-8" standalone="no"?>
<!-- Created with Inkscape (http://www.inkscape.org/) -->

<svg
   version="1.1"
   id="svg2"
   xml:space="preserve"
   width="509.1947"
   height="307.82269"
   viewBox="0 0 509.1947 307.82271"
   sodipodi:docname="jmh-result-20240216-144818-compact-table.svg"
   inkscape:version="1.1.2 (0a00cf5339, 2022-02-04)"
   xmlns:inkscape="http://www.inkscape.org/namespaces/inkscape"
   xmlns:sodipodi="http://sodipodi.sourceforge.net/DTD/sodipodi-0.dtd"
   xmlns="http://www.w3.org/2000/svg"
   xmlns:svg="http://www.w3.org/2000/svg"><defs
     id="defs6"><clipPath
       clipPathUnits="userSpaceOnUse"
       id="clipPath16"><path
         d="M 0,0.028 H 595.275 V 841.889 H 0 Z"
         clip-rule="evenodd"
         id="path14" /></clipPath><clipPath
       clipPathUnits="userSpaceOnUse"
       id="clipPath24"><path
         d="m 56.7,771.089 h 481.85 v 14.099 H 56.7 Z"
         clip-rule="evenodd"
         id="path22" /></clipPath><clipPath
       clipPathUnits="userSpaceOnUse"
       id="clipPath42"><path
         d="M 56.7,56.789 H 538.55 V 70.888 H 56.7 Z"
         clip-rule="evenodd"
         id="path40" /></clipPath></defs><sodipodi:namedview
     id="namedview4"
     pagecolor="#ffffff"
     bordercolor="#666666"
     borderopacity="1.0"
     inkscape:pageshadow="2"
     inkscape:pageopacity="0.0"
     inkscape:pagecheckerboard="0"
     showgrid="false"
     fit-margin-top="0"
     fit-margin-left="0"
     fit-margin-right="0"
     fit-margin-bottom="0"
     inkscape:zoom="0.64052331"
     inkscape:cx="310.68346"
     inkscape:cy="458.21908"
     inkscape:window-width="1920"
     inkscape:window-height="1176"
     inkscape:window-x="1920"
     inkscape:window-y="0"
     inkscape:window-maximized="1"
     inkscape:current-layer="g8" /><g
     id="g8"
     inkscape:groupmode="layer"
     inkscape:label="jmh-result-20240216-144818-compact-table"
     transform="matrix(1.3333333,0,0,-1.3333333,-75.053311,1019.1573)"><g
       id="g10"><g
         id="g12"
         clip-path="url(#clipPath16)" /></g><path
       d="M 56.693,533.933 H 437.754 V 764.078 H 56.693 Z"
       style="fill:#ffffa6;fill-opacity:1;fill-rule:evenodd;stroke:none"
       id="path60" /><g
       id="g62"><path
         d="M 56.296,763.993 H 438.18"
         style="fill:none;stroke:#000000;stroke-width:0.75003;stroke-linecap:butt;stroke-linejoin:round;stroke-miterlimit:10;stroke-dasharray:none;stroke-opacity:1"
         id="path64" /></g><g
       id="g66"><path
         d="M 56.665,764.361 V 533.508"
         style="fill:none;stroke:#000000;stroke-width:0.75003;stroke-linecap:butt;stroke-linejoin:round;stroke-miterlimit:10;stroke-dasharray:none;stroke-opacity:1"
         id="path68" /></g><g
       id="g70"><path
         d="M 242.164,764.361 V 533.508"
         style="fill:none;stroke:#000000;stroke-width:0.75003;stroke-linecap:butt;stroke-linejoin:round;stroke-miterlimit:10;stroke-dasharray:none;stroke-opacity:1"
         id="path72" /></g><g
       id="g74"><path
         d="M 302.598,764.361 V 533.508"
         style="fill:none;stroke:#000000;stroke-width:0.75003;stroke-linecap:butt;stroke-linejoin:round;stroke-miterlimit:10;stroke-dasharray:none;stroke-opacity:1"
         id="path76" /></g><g
       id="g78"><path
         d="M 373.833,764.361 V 533.508"
         style="fill:none;stroke:#000000;stroke-width:0.75003;stroke-linecap:butt;stroke-linejoin:round;stroke-miterlimit:10;stroke-dasharray:none;stroke-opacity:1"
         id="path80" /></g><g
       id="g82"><path
         d="M 437.811,764.361 V 533.508"
         style="fill:none;stroke:#000000;stroke-width:0.75003;stroke-linecap:butt;stroke-linejoin:round;stroke-miterlimit:10;stroke-dasharray:none;stroke-opacity:1"
         id="path84" /></g><g
       id="g86"><path
         d="M 437.811,764.361 V 533.508"
         style="fill:none;stroke:#000000;stroke-width:0.75003;stroke-linecap:butt;stroke-linejoin:round;stroke-miterlimit:10;stroke-dasharray:none;stroke-opacity:1"
         id="path88" /></g><g
       id="g90"><path
         d="M 56.296,751.209 H 438.18"
         style="fill:none;stroke:#000000;stroke-width:0.75003;stroke-linecap:butt;stroke-linejoin:round;stroke-miterlimit:10;stroke-dasharray:none;stroke-opacity:1"
         id="path92" /></g><g
       id="g94"><path
         d="M 56.296,738.424 H 438.18"
         style="fill:none;stroke:#000000;stroke-width:0.75003;stroke-linecap:butt;stroke-linejoin:round;stroke-miterlimit:10;stroke-dasharray:none;stroke-opacity:1"
         id="path96" /></g><g
       id="g98"><path
         d="M 56.296,725.64 H 438.18"
         style="fill:none;stroke:#000000;stroke-width:0.75003;stroke-linecap:butt;stroke-linejoin:round;stroke-miterlimit:10;stroke-dasharray:none;stroke-opacity:1"
         id="path100" /></g><g
       id="g102"><path
         d="M 56.296,712.856 H 438.18"
         style="fill:none;stroke:#000000;stroke-width:0.75003;stroke-linecap:butt;stroke-linejoin:round;stroke-miterlimit:10;stroke-dasharray:none;stroke-opacity:1"
         id="path104" /></g><g
       id="g106"><path
         d="M 56.296,700.072 H 438.18"
         style="fill:none;stroke:#000000;stroke-width:0.75003;stroke-linecap:butt;stroke-linejoin:round;stroke-miterlimit:10;stroke-dasharray:none;stroke-opacity:1"
         id="path108" /></g><g
       id="g110"><path
         d="M 56.296,687.287 H 438.18"
         style="fill:none;stroke:#000000;stroke-width:0.75003;stroke-linecap:butt;stroke-linejoin:round;stroke-miterlimit:10;stroke-dasharray:none;stroke-opacity:1"
         id="path112" /></g><g
       id="g114"><path
         d="M 56.296,674.503 H 438.18"
         style="fill:none;stroke:#000000;stroke-width:0.75003;stroke-linecap:butt;stroke-linejoin:round;stroke-miterlimit:10;stroke-dasharray:none;stroke-opacity:1"
         id="path116" /></g><g
       id="g118"><path
         d="M 56.296,661.719 H 438.18"
         style="fill:none;stroke:#000000;stroke-width:0.75003;stroke-linecap:butt;stroke-linejoin:round;stroke-miterlimit:10;stroke-dasharray:none;stroke-opacity:1"
         id="path120" /></g><g
       id="g122"><path
         d="M 56.296,648.935 H 438.18"
         style="fill:none;stroke:#000000;stroke-width:0.75003;stroke-linecap:butt;stroke-linejoin:round;stroke-miterlimit:10;stroke-dasharray:none;stroke-opacity:1"
         id="path124" /></g><g
       id="g126"><path
         d="M 56.296,636.15 H 438.18"
         style="fill:none;stroke:#000000;stroke-width:0.75003;stroke-linecap:butt;stroke-linejoin:round;stroke-miterlimit:10;stroke-dasharray:none;stroke-opacity:1"
         id="path128" /></g><g
       id="g130"><path
         d="M 56.296,623.366 H 438.18"
         style="fill:none;stroke:#000000;stroke-width:0.75003;stroke-linecap:butt;stroke-linejoin:round;stroke-miterlimit:10;stroke-dasharray:none;stroke-opacity:1"
         id="path132" /></g><g
       id="g134"><path
         d="M 56.296,610.582 H 438.18"
         style="fill:none;stroke:#000000;stroke-width:0.75003;stroke-linecap:butt;stroke-linejoin:round;stroke-miterlimit:10;stroke-dasharray:none;stroke-opacity:1"
         id="path136" /></g><g
       id="g138"><path
         d="M 56.296,597.798 H 438.18"
         style="fill:none;stroke:#000000;stroke-width:0.75003;stroke-linecap:butt;stroke-linejoin:round;stroke-miterlimit:10;stroke-dasharray:none;stroke-opacity:1"
         id="path140" /></g><g
       id="g142"><path
         d="M 56.296,585.013 H 438.18"
         style="fill:none;stroke:#000000;stroke-width:0.75003;stroke-linecap:butt;stroke-linejoin:round;stroke-miterlimit:10;stroke-dasharray:none;stroke-opacity:1"
         id="path144" /></g><g
       id="g146"><path
         d="M 56.296,572.229 H 438.18"
         style="fill:none;stroke:#000000;stroke-width:0.75003;stroke-linecap:butt;stroke-linejoin:round;stroke-miterlimit:10;stroke-dasharray:none;stroke-opacity:1"
         id="path148" /></g><g
       id="g150"><path
         d="M 56.296,559.445 H 438.18"
         style="fill:none;stroke:#000000;stroke-width:0.75003;stroke-linecap:butt;stroke-linejoin:round;stroke-miterlimit:10;stroke-dasharray:none;stroke-opacity:1"
         id="path152" /></g><g
       id="g154"><path
         d="M 56.296,546.661 H 438.18"
         style="fill:none;stroke:#000000;stroke-width:0.75003;stroke-linecap:butt;stroke-linejoin:round;stroke-miterlimit:10;stroke-dasharray:none;stroke-opacity:1"
         id="path156" /></g><g
       id="g158"><path
         d="M 56.296,533.876 H 438.18"
         style="fill:none;stroke:#000000;stroke-width:0.75003;stroke-linecap:butt;stroke-linejoin:round;stroke-miterlimit:10;stroke-dasharray:none;stroke-opacity:1"
         id="path160" /></g><g
       id="g162"><path
         d="M 56.296,533.876 H 438.18"
         style="fill:none;stroke:#000000;stroke-width:0.75003;stroke-linecap:butt;stroke-linejoin:round;stroke-miterlimit:10;stroke-dasharray:none;stroke-opacity:1"
         id="path164" /></g><g
       id="g166"><text
         transform="matrix(1,0,0,-1,57.685,754.27)"
         style="font-variant:normal;font-weight:bold;font-size:10.006px;font-family:'Liberation Sans';-inkscape-font-specification:LiberationSans-Bold;writing-mode:lr-tb;fill:#000000;fill-opacity:1;fill-rule:nonzero;stroke:none"
         id="text170"><tspan
           x="0 6.1036601 11.697014 17.800674 23.394028 29.497688 38.393021 43.986378 47.878712"
           y="0"
           sodipodi:role="line"
           id="tspan168">benchmark</tspan></text></g><g
       id="g172"><text
         transform="matrix(1,0,0,-1,243.184,754.27)"
         style="font-variant:normal;font-weight:bold;font-size:10.006px;font-family:'Liberation Sans';-inkscape-font-specification:LiberationSans-Bold;writing-mode:lr-tb;fill:#000000;fill-opacity:1;fill-rule:nonzero;stroke:none"
         id="text176"><tspan
           x="0 5.5933542 11.186708 16.780062 22.883722 28.477076"
           y="0"
           sodipodi:role="line"
           id="tspan174">cached</tspan></text></g><g
       id="g178"><text
         transform="matrix(1,0,0,-1,303.619,754.27)"
         style="font-variant:normal;font-weight:bold;font-size:10.006px;font-family:'Liberation Sans';-inkscape-font-specification:LiberationSans-Bold;writing-mode:lr-tb;fill:#000000;fill-opacity:1;fill-rule:nonzero;stroke:none"
         id="text182"><tspan
           x="0 6.1036601 12.20732 17.800674 23.394028 28.987383 35.091042 40.684395"
           y="0"
           sodipodi:role="line"
           id="tspan180">uncached</tspan></text></g><g
       id="g184"><text
         transform="matrix(1,0,0,-1,374.854,754.27)"
         style="font-variant:normal;font-weight:bold;font-size:10.006px;font-family:'Liberation Sans';-inkscape-font-specification:LiberationSans-Bold;writing-mode:lr-tb;fill:#000000;fill-opacity:1;fill-rule:nonzero;stroke:none"
         id="text188"><tspan
           x="0 5.5933542 11.697014 17.290367 22.883722 28.987383 31.779057 35.081036 40.674389 46.267742 49.569725 55.673386"
           y="0"
           sodipodi:role="line"
           id="tspan186">speed factor</tspan></text></g><g
       id="g190"><text
         transform="matrix(1,0,0,-1,57.685,741.486)"
         style="font-variant:normal;font-weight:normal;font-size:10.006px;font-family:'Liberation Sans';-inkscape-font-specification:LiberationSans;writing-mode:lr-tb;fill:#000000;fill-opacity:1;fill-rule:nonzero;stroke:none"
         id="text194"><tspan
           x="0 5.5933542 11.186708 16.780062 22.373417 27.96677 35.171089 40.764442 46.3578 51.951153 57.544506 63.137859 69.831871 75.425224 81.018585 86.021584 88.2229 93.816254 96.017578 104.32256 109.91591 112.70758 118.30094 123.89429"
           y="0"
           sodipodi:role="line"
           id="tspan192">b1oneChangeSpecialMethod</tspan></text></g><g
       id="g196"><text
         transform="matrix(1,0,0,-1,276.406,741.486)"
         style="font-variant:normal;font-weight:normal;font-size:10.006px;font-family:'Liberation Sans';-inkscape-font-specification:LiberationSans;writing-mode:lr-tb;fill:#000000;fill-opacity:1;fill-rule:nonzero;stroke:none"
         id="text200"><tspan
           x="0 5.5933542 8.3850279 13.978382 19.571735"
           y="0"
           sodipodi:role="line"
           id="tspan198">5.389</tspan></text></g><g
       id="g202"><text
         transform="matrix(1,0,0,-1,347.641,741.486)"
         style="font-variant:normal;font-weight:normal;font-size:10.006px;font-family:'Liberation Sans';-inkscape-font-specification:LiberationSans;writing-mode:lr-tb;fill:#000000;fill-opacity:1;fill-rule:nonzero;stroke:none"
         id="text206"><tspan
           x="0 5.5933542 8.3850279 13.978382 19.571735"
           y="0"
           sodipodi:role="line"
           id="tspan204">5.121</tspan></text></g><g
       id="g208"><text
         transform="matrix(1,0,0,-1,411.619,741.486)"
         style="font-variant:normal;font-weight:normal;font-size:10.006px;font-family:'Liberation Sans';-inkscape-font-specification:LiberationSans;writing-mode:lr-tb;fill:#000000;fill-opacity:1;fill-rule:nonzero;stroke:none"
         id="text212"><tspan
           x="0 5.5933542 8.3850279 13.978382 19.571735"
           y="0"
           sodipodi:role="line"
           id="tspan210">0.950</tspan></text></g><g
       id="g214"><text
         transform="matrix(1,0,0,-1,57.685,728.702)"
         style="font-variant:normal;font-weight:normal;font-size:10.006px;font-family:'Liberation Sans';-inkscape-font-specification:LiberationSans;writing-mode:lr-tb;fill:#000000;fill-opacity:1;fill-rule:nonzero;stroke:none"
         id="text218"><tspan
           x="0 5.5933542 11.186708 17.290367 22.883722 27.886723 30.678396 36.271751 39.57373 48.97937 51.180691 53.972363 59.56572 65.159073"
           y="0"
           sodipodi:role="line"
           id="tspan216">b2FasterWither</tspan></text></g><g
       id="g220"><text
         transform="matrix(1,0,0,-1,270.794,728.702)"
         style="font-variant:normal;font-weight:normal;font-size:10.006px;font-family:'Liberation Sans';-inkscape-font-specification:LiberationSans;writing-mode:lr-tb;fill:#000000;fill-opacity:1;fill-rule:nonzero;stroke:none"
         id="text224"><tspan
           x="0 5.5933542 11.186708 13.978382 19.571735 25.165091"
           y="0"
           sodipodi:role="line"
           id="tspan222">78.782</tspan></text></g><g
       id="g226"><text
         transform="matrix(1,0,0,-1,342.028,728.702)"
         style="font-variant:normal;font-weight:normal;font-size:10.006px;font-family:'Liberation Sans';-inkscape-font-specification:LiberationSans;writing-mode:lr-tb;fill:#000000;fill-opacity:1;fill-rule:nonzero;stroke:none"
         id="text230"><tspan
           x="0 5.5933542 11.186708 13.978382 19.571735 25.165091"
           y="0"
           sodipodi:role="line"
           id="tspan228">80.367</tspan></text></g><g
       id="g232"><text
         transform="matrix(1,0,0,-1,411.619,728.702)"
         style="font-variant:normal;font-weight:normal;font-size:10.006px;font-family:'Liberation Sans';-inkscape-font-specification:LiberationSans;writing-mode:lr-tb;fill:#000000;fill-opacity:1;fill-rule:nonzero;stroke:none"
         id="text236"><tspan
           x="0 5.5933542 8.3850279 13.978382 19.571735"
           y="0"
           sodipodi:role="line"
           id="tspan234">1.020</tspan></text></g><g
       id="g238"><text
         transform="matrix(1,0,0,-1,57.685,715.917)"
         style="font-variant:normal;font-weight:normal;font-size:10.006px;font-family:'Liberation Sans';-inkscape-font-specification:LiberationSans;writing-mode:lr-tb;fill:#000000;fill-opacity:1;fill-rule:nonzero;stroke:none"
         id="text242"><tspan
           x="0 5.5933542 11.186708 18.391027 23.984383 26.776056 28.977377 34.570728 39.57373 42.365402 44.566723 50.160076"
           y="0"
           sodipodi:role="line"
           id="tspan240">b3Reflection</tspan></text></g><g
       id="g244"><text
         transform="matrix(1,0,0,-1,265.209,715.917)"
         style="font-variant:normal;font-weight:normal;font-size:10.006px;font-family:'Liberation Sans';-inkscape-font-specification:LiberationSans;writing-mode:lr-tb;fill:#000000;fill-opacity:1;fill-rule:nonzero;stroke:none"
         id="text248"><tspan
           x="0 5.5933542 11.186708 16.780062 19.571735 25.165091 30.758444"
           y="0"
           sodipodi:role="line"
           id="tspan246">152.753</tspan></text></g><g
       id="g250"><text
         transform="matrix(1,0,0,-1,325.247,715.917)"
         style="font-variant:normal;font-weight:normal;font-size:10.006px;font-family:'Liberation Sans';-inkscape-font-specification:LiberationSans;writing-mode:lr-tb;fill:#000000;fill-opacity:1;fill-rule:nonzero;stroke:none"
         id="text254"><tspan
           x="0 5.5933542 11.186708 16.780062 22.373417 27.96677 30.758444 36.351799 41.945152"
           y="0"
           sodipodi:role="line"
           id="tspan252">23194.294</tspan></text></g><g
       id="g256"><text
         transform="matrix(1,0,0,-1,400.422,715.917)"
         style="font-variant:normal;font-weight:normal;font-size:10.006px;font-family:'Liberation Sans';-inkscape-font-specification:LiberationSans;writing-mode:lr-tb;fill:#000000;fill-opacity:1;fill-rule:nonzero;stroke:none"
         id="text260"><tspan
           x="0 5.5933542 11.186708 16.780062 19.571735 25.165091 30.758444"
           y="0"
           sodipodi:role="line"
           id="tspan258">151.842</tspan></text></g><g
       id="g262"><text
         transform="matrix(1,0,0,-1,57.685,703.133)"
         style="font-variant:normal;font-weight:normal;font-size:10.006px;font-family:'Liberation Sans';-inkscape-font-specification:LiberationSans;writing-mode:lr-tb;fill:#000000;fill-opacity:1;fill-rule:nonzero;stroke:none"
         id="text266"><tspan
           x="0 5.5933542 11.186708 16.780062 22.373417 27.96677 35.171089 40.764442 46.3578 51.951153 57.544506 63.137859 70.342178 75.935532 78.727211 80.928528 86.521881 91.524879 94.316559 96.517876 102.11123"
           y="0"
           sodipodi:role="line"
           id="tspan264">b4oneChangeReflection</tspan></text></g><g
       id="g268"><text
         transform="matrix(1,0,0,-1,265.209,703.133)"
         style="font-variant:normal;font-weight:normal;font-size:10.006px;font-family:'Liberation Sans';-inkscape-font-specification:LiberationSans;writing-mode:lr-tb;fill:#000000;fill-opacity:1;fill-rule:nonzero;stroke:none"
         id="text272"><tspan
           x="0 5.5933542 11.186708 16.780062 19.571735 25.165091 30.758444"
           y="0"
           sodipodi:role="line"
           id="tspan270">267.943</tspan></text></g><g
       id="g274"><text
         transform="matrix(1,0,0,-1,325.247,703.133)"
         style="font-variant:normal;font-weight:normal;font-size:10.006px;font-family:'Liberation Sans';-inkscape-font-specification:LiberationSans;writing-mode:lr-tb;fill:#000000;fill-opacity:1;fill-rule:nonzero;stroke:none"
         id="text278"><tspan
           x="0 5.5933542 11.186708 16.780062 22.373417 27.96677 30.758444 36.351799 41.945152"
           y="0"
           sodipodi:role="line"
           id="tspan276">10970.305</tspan></text></g><g
       id="g280"><text
         transform="matrix(1,0,0,-1,406.006,703.133)"
         style="font-variant:normal;font-weight:normal;font-size:10.006px;font-family:'Liberation Sans';-inkscape-font-specification:LiberationSans;writing-mode:lr-tb;fill:#000000;fill-opacity:1;fill-rule:nonzero;stroke:none"
         id="text284"><tspan
           x="0 5.5933542 11.186708 13.978382 19.571735 25.165091"
           y="0"
           sodipodi:role="line"
           id="tspan282">40.943</tspan></text></g><g
       id="g286"><text
         transform="matrix(1,0,0,-1,57.685,690.349)"
         style="font-variant:normal;font-weight:normal;font-size:10.006px;font-family:'Liberation Sans';-inkscape-font-specification:LiberationSans;writing-mode:lr-tb;fill:#000000;fill-opacity:1;fill-rule:nonzero;stroke:none"
         id="text290"><tspan
           x="0 5.5933542 11.186708 19.491688 25.085043 27.876717 33.47007 39.063423 44.656776 51.861099 57.454453 63.047806 68.641159 70.842484 76.435837"
           y="0"
           sodipodi:role="line"
           id="tspan288">b5MethodHandles</tspan></text></g><g
       id="g292"><text
         transform="matrix(1,0,0,-1,265.209,690.349)"
         style="font-variant:normal;font-weight:normal;font-size:10.006px;font-family:'Liberation Sans';-inkscape-font-specification:LiberationSans;writing-mode:lr-tb;fill:#000000;fill-opacity:1;fill-rule:nonzero;stroke:none"
         id="text296"><tspan
           x="0 5.5933542 11.186708 16.780062 19.571735 25.165091 30.758444"
           y="0"
           sodipodi:role="line"
           id="tspan294">376.072</tspan></text></g><g
       id="g298"><text
         transform="matrix(1,0,0,-1,325.247,690.349)"
         style="font-variant:normal;font-weight:normal;font-size:10.006px;font-family:'Liberation Sans';-inkscape-font-specification:LiberationSans;writing-mode:lr-tb;fill:#000000;fill-opacity:1;fill-rule:nonzero;stroke:none"
         id="text302"><tspan
           x="0 5.5933542 11.186708 16.780062 22.373417 27.96677 30.758444 36.351799 41.945152"
           y="0"
           sodipodi:role="line"
           id="tspan300">10458.005</tspan></text></g><g
       id="g304"><text
         transform="matrix(1,0,0,-1,406.006,690.349)"
         style="font-variant:normal;font-weight:normal;font-size:10.006px;font-family:'Liberation Sans';-inkscape-font-specification:LiberationSans;writing-mode:lr-tb;fill:#000000;fill-opacity:1;fill-rule:nonzero;stroke:none"
         id="text308"><tspan
           x="0 5.5933542 11.186708 13.978382 19.571735 25.165091"
           y="0"
           sodipodi:role="line"
           id="tspan306">27.809</tspan></text></g><g
       id="g310"><text
         transform="matrix(1,0,0,-1,57.685,677.565)"
         style="font-variant:normal;font-weight:normal;font-size:10.006px;font-family:'Liberation Sans';-inkscape-font-specification:LiberationSans;writing-mode:lr-tb;fill:#000000;fill-opacity:1;fill-rule:nonzero;stroke:none"
         id="text314"><tspan
           x="0 5.5933542 11.186708 16.780062 22.373417 27.96677 35.171089 40.764442 46.3578 51.951153 57.544506 63.137859 71.442841 77.036194 79.827866 85.421219 91.01458 96.607933 103.81225 109.4056 114.99895 120.59232 122.79363 128.38699"
           y="0"
           sodipodi:role="line"
           id="tspan312">b6oneChangeMethodHandles</tspan></text></g><g
       id="g316"><text
         transform="matrix(1,0,0,-1,265.209,677.565)"
         style="font-variant:normal;font-weight:normal;font-size:10.006px;font-family:'Liberation Sans';-inkscape-font-specification:LiberationSans;writing-mode:lr-tb;fill:#000000;fill-opacity:1;fill-rule:nonzero;stroke:none"
         id="text320"><tspan
           x="0 5.5933542 11.186708 16.780062 19.571735 25.165091 30.758444"
           y="0"
           sodipodi:role="line"
           id="tspan318">276.357</tspan></text></g><g
       id="g322"><text
         transform="matrix(1,0,0,-1,325.247,677.565)"
         style="font-variant:normal;font-weight:normal;font-size:10.006px;font-family:'Liberation Sans';-inkscape-font-specification:LiberationSans;writing-mode:lr-tb;fill:#000000;fill-opacity:1;fill-rule:nonzero;stroke:none"
         id="text326"><tspan
           x="0 5.5933542 11.186708 16.780062 22.373417 27.96677 30.758444 36.351799 41.945152"
           y="0"
           sodipodi:role="line"
           id="tspan324">10495.124</tspan></text></g><g
       id="g328"><text
         transform="matrix(1,0,0,-1,406.006,677.565)"
         style="font-variant:normal;font-weight:normal;font-size:10.006px;font-family:'Liberation Sans';-inkscape-font-specification:LiberationSans;writing-mode:lr-tb;fill:#000000;fill-opacity:1;fill-rule:nonzero;stroke:none"
         id="text332"><tspan
           x="0 5.5933542 11.186708 13.978382 19.571735 25.165091"
           y="0"
           sodipodi:role="line"
           id="tspan330">37.977</tspan></text></g><g
       id="g334"><text
         transform="matrix(1,0,0,-1,57.685,664.78)"
         style="font-variant:normal;font-weight:normal;font-size:10.006px;font-family:'Liberation Sans';-inkscape-font-specification:LiberationSans;writing-mode:lr-tb;fill:#000000;fill-opacity:1;fill-rule:nonzero;stroke:none"
         id="text338"><tspan
           x="0 5.5933542 11.186708 16.780062 22.373417 27.96677 35.171089 40.764442 46.3578 51.951153 57.544506 63.137859 69.241524 74.834877 79.837875 82.629547 88.2229"
           y="0"
           sodipodi:role="line"
           id="tspan336">b7oneChangeFaster</tspan></text></g><g
       id="g340"><text
         transform="matrix(1,0,0,-1,270.794,664.78)"
         style="font-variant:normal;font-weight:normal;font-size:10.006px;font-family:'Liberation Sans';-inkscape-font-specification:LiberationSans;writing-mode:lr-tb;fill:#000000;fill-opacity:1;fill-rule:nonzero;stroke:none"
         id="text344"><tspan
           x="0 5.5933542 11.186708 13.978382 19.571735 25.165091"
           y="0"
           sodipodi:role="line"
           id="tspan342">37.319</tspan></text></g><g
       id="g346"><text
         transform="matrix(1,0,0,-1,342.028,664.78)"
         style="font-variant:normal;font-weight:normal;font-size:10.006px;font-family:'Liberation Sans';-inkscape-font-specification:LiberationSans;writing-mode:lr-tb;fill:#000000;fill-opacity:1;fill-rule:nonzero;stroke:none"
         id="text350"><tspan
           x="0 5.5933542 11.186708 13.978382 19.571735 25.165091"
           y="0"
           sodipodi:role="line"
           id="tspan348">38.484</tspan></text></g><g
       id="g352"><text
         transform="matrix(1,0,0,-1,411.619,664.78)"
         style="font-variant:normal;font-weight:normal;font-size:10.006px;font-family:'Liberation Sans';-inkscape-font-specification:LiberationSans;writing-mode:lr-tb;fill:#000000;fill-opacity:1;fill-rule:nonzero;stroke:none"
         id="text356"><tspan
           x="0 5.5933542 8.3850279 13.978382 19.571735"
           y="0"
           sodipodi:role="line"
           id="tspan354">1.031</tspan></text></g><g
       id="g358"><text
         transform="matrix(1,0,0,-1,57.685,651.996)"
         style="font-variant:normal;font-weight:normal;font-size:10.006px;font-family:'Liberation Sans';-inkscape-font-specification:LiberationSans;writing-mode:lr-tb;fill:#000000;fill-opacity:1;fill-rule:nonzero;stroke:none"
         id="text362"><tspan
           x="0 5.5933542 11.186708 16.780062 22.373417 29.577736 35.171089 40.764442 46.3578 51.951153 57.544506 63.648167 69.241524 74.834877 79.837875 82.629547 84.830872 90.424225 96.017578 101.61093"
           y="0"
           sodipodi:role="line"
           id="tspan360">b8onChangeFunctional</tspan></text></g><g
       id="g364"><text
         transform="matrix(1,0,0,-1,265.209,651.996)"
         style="font-variant:normal;font-weight:normal;font-size:10.006px;font-family:'Liberation Sans';-inkscape-font-specification:LiberationSans;writing-mode:lr-tb;fill:#000000;fill-opacity:1;fill-rule:nonzero;stroke:none"
         id="text368"><tspan
           x="0 5.5933542 11.186708 16.780062 19.571735 25.165091 30.758444"
           y="0"
           sodipodi:role="line"
           id="tspan366">275.439</tspan></text></g><g
       id="g370"><text
         transform="matrix(1,0,0,-1,325.247,651.996)"
         style="font-variant:normal;font-weight:normal;font-size:10.006px;font-family:'Liberation Sans';-inkscape-font-specification:LiberationSans;writing-mode:lr-tb;fill:#000000;fill-opacity:1;fill-rule:nonzero;stroke:none"
         id="text374"><tspan
           x="0 5.5933542 11.186708 16.780062 22.373417 27.96677 30.758444 36.351799 41.945152"
           y="0"
           sodipodi:role="line"
           id="tspan372">11012.004</tspan></text></g><g
       id="g376"><text
         transform="matrix(1,0,0,-1,406.006,651.996)"
         style="font-variant:normal;font-weight:normal;font-size:10.006px;font-family:'Liberation Sans';-inkscape-font-specification:LiberationSans;writing-mode:lr-tb;fill:#000000;fill-opacity:1;fill-rule:nonzero;stroke:none"
         id="text380"><tspan
           x="0 5.5933542 11.186708 13.978382 19.571735 25.165091"
           y="0"
           sodipodi:role="line"
           id="tspan378">39.980</tspan></text></g><g
       id="g382"><text
         transform="matrix(1,0,0,-1,57.685,639.212)"
         style="font-variant:normal;font-weight:normal;font-size:10.006px;font-family:'Liberation Sans';-inkscape-font-specification:LiberationSans;writing-mode:lr-tb;fill:#000000;fill-opacity:1;fill-rule:nonzero;stroke:none"
         id="text386"><tspan
           x="0 5.5933542 11.186708 17.290367 22.883722 28.477076 33.480076 36.271751 38.473068 44.066425 49.659779 55.253132"
           y="0"
           sodipodi:role="line"
           id="tspan384">b9Functional</tspan></text></g><g
       id="g388"><text
         transform="matrix(1,0,0,-1,265.209,639.212)"
         style="font-variant:normal;font-weight:normal;font-size:10.006px;font-family:'Liberation Sans';-inkscape-font-specification:LiberationSans;writing-mode:lr-tb;fill:#000000;fill-opacity:1;fill-rule:nonzero;stroke:none"
         id="text392"><tspan
           x="0 5.5933542 11.186708 16.780062 19.571735 25.165091 30.758444"
           y="0"
           sodipodi:role="line"
           id="tspan390">354.706</tspan></text></g><g
       id="g394"><text
         transform="matrix(1,0,0,-1,330.831,639.212)"
         style="font-variant:normal;font-weight:normal;font-size:10.006px;font-family:'Liberation Sans';-inkscape-font-specification:LiberationSans;writing-mode:lr-tb;fill:#000000;fill-opacity:1;fill-rule:nonzero;stroke:none"
         id="text398"><tspan
           x="0 5.5933542 11.186708 16.780062 22.373417 25.165091 30.758444 36.351799"
           y="0"
           sodipodi:role="line"
           id="tspan396">2908.414</tspan></text></g><g
       id="g400"><text
         transform="matrix(1,0,0,-1,411.619,639.212)"
         style="font-variant:normal;font-weight:normal;font-size:10.006px;font-family:'Liberation Sans';-inkscape-font-specification:LiberationSans;writing-mode:lr-tb;fill:#000000;fill-opacity:1;fill-rule:nonzero;stroke:none"
         id="text404"><tspan
           x="0 5.5933542 8.3850279 13.978382 19.571735"
           y="0"
           sodipodi:role="line"
           id="tspan402">8.199</tspan></text></g><g
       id="g406"><text
         transform="matrix(1,0,0,-1,57.685,626.428)"
         style="font-variant:normal;font-weight:normal;font-size:10.006px;font-family:'Liberation Sans';-inkscape-font-specification:LiberationSans;writing-mode:lr-tb;fill:#000000;fill-opacity:1;fill-rule:nonzero;stroke:none"
         id="text410"><tspan
           x="0 5.5933542 11.186708 18.391027 23.394028 28.987383 32.289364 34.490681"
           y="0"
           sodipodi:role="line"
           id="tspan408">b9Hybrid</tspan></text></g><g
       id="g412"><text
         transform="matrix(1,0,0,-1,265.209,626.428)"
         style="font-variant:normal;font-weight:normal;font-size:10.006px;font-family:'Liberation Sans';-inkscape-font-specification:LiberationSans;writing-mode:lr-tb;fill:#000000;fill-opacity:1;fill-rule:nonzero;stroke:none"
         id="text416"><tspan
           x="0 5.5933542 11.186708 16.780062 19.571735 25.165091 30.758444"
           y="0"
           sodipodi:role="line"
           id="tspan414">139.029</tspan></text></g><g
       id="g418"><text
         transform="matrix(1,0,0,-1,336.444,626.428)"
         style="font-variant:normal;font-weight:normal;font-size:10.006px;font-family:'Liberation Sans';-inkscape-font-specification:LiberationSans;writing-mode:lr-tb;fill:#000000;fill-opacity:1;fill-rule:nonzero;stroke:none"
         id="text422"><tspan
           x="0 5.5933542 11.186708 16.780062 19.571735 25.165091 30.758444"
           y="0"
           sodipodi:role="line"
           id="tspan420">341.652</tspan></text></g><g
       id="g424"><text
         transform="matrix(1,0,0,-1,411.619,626.428)"
         style="font-variant:normal;font-weight:normal;font-size:10.006px;font-family:'Liberation Sans';-inkscape-font-specification:LiberationSans;writing-mode:lr-tb;fill:#000000;fill-opacity:1;fill-rule:nonzero;stroke:none"
         id="text428"><tspan
           x="0 5.5933542 8.3850279 13.978382 19.571735"
           y="0"
           sodipodi:role="line"
           id="tspan426">2.457</tspan></text></g><g
       id="g430"><text
         transform="matrix(1,0,0,-1,57.685,613.643)"
         style="font-variant:normal;font-weight:normal;font-size:10.006px;font-family:'Liberation Sans';-inkscape-font-specification:LiberationSans;writing-mode:lr-tb;fill:#000000;fill-opacity:1;fill-rule:nonzero;stroke:none"
         id="text434"><tspan
           x="0 5.5933542 12.287368 18.981382 22.283361 25.585342 31.178696 36.181698 42.87571 48.469063 50.670383 52.871704 58.465057 64.058411"
           y="0"
           sodipodi:role="line"
           id="tspan432">bAArrayBuilder</tspan></text></g><g
       id="g436"><text
         transform="matrix(1,0,0,-1,270.794,613.643)"
         style="font-variant:normal;font-weight:normal;font-size:10.006px;font-family:'Liberation Sans';-inkscape-font-specification:LiberationSans;writing-mode:lr-tb;fill:#000000;fill-opacity:1;fill-rule:nonzero;stroke:none"
         id="text440"><tspan
           x="0 5.5933542 11.186708 13.978382 19.571735 25.165091"
           y="0"
           sodipodi:role="line"
           id="tspan438">40.619</tspan></text></g><g
       id="g442"><text
         transform="matrix(1,0,0,-1,342.028,613.643)"
         style="font-variant:normal;font-weight:normal;font-size:10.006px;font-family:'Liberation Sans';-inkscape-font-specification:LiberationSans;writing-mode:lr-tb;fill:#000000;fill-opacity:1;fill-rule:nonzero;stroke:none"
         id="text446"><tspan
           x="0 5.5933542 11.186708 13.978382 19.571735 25.165091"
           y="0"
           sodipodi:role="line"
           id="tspan444">40.160</tspan></text></g><g
       id="g448"><text
         transform="matrix(1,0,0,-1,411.619,613.643)"
         style="font-variant:normal;font-weight:normal;font-size:10.006px;font-family:'Liberation Sans';-inkscape-font-specification:LiberationSans;writing-mode:lr-tb;fill:#000000;fill-opacity:1;fill-rule:nonzero;stroke:none"
         id="text452"><tspan
           x="0 5.5933542 8.3850279 13.978382 19.571735"
           y="0"
           sodipodi:role="line"
           id="tspan450">0.989</tspan></text></g><g
       id="g454"><text
         transform="matrix(1,0,0,-1,57.685,600.859)"
         style="font-variant:normal;font-weight:normal;font-size:10.006px;font-family:'Liberation Sans';-inkscape-font-specification:LiberationSans;writing-mode:lr-tb;fill:#000000;fill-opacity:1;fill-rule:nonzero;stroke:none"
         id="text458"><tspan
           x="0 5.5933542 12.287368 20.082043 25.675396 31.268749 38.473068 44.066425 49.659779 55.253132 60.846485 66.439842 73.133858 79.827866 85.421219 87.622543 89.82386 95.417213 101.01057"
           y="0"
           sodipodi:role="line"
           id="tspan456">bAOneChangeABuilder</tspan></text></g><g
       id="g460"><text
         transform="matrix(1,0,0,-1,270.794,600.859)"
         style="font-variant:normal;font-weight:normal;font-size:10.006px;font-family:'Liberation Sans';-inkscape-font-specification:LiberationSans;writing-mode:lr-tb;fill:#000000;fill-opacity:1;fill-rule:nonzero;stroke:none"
         id="text464"><tspan
           x="0 5.5933542 11.186708 13.978382 19.571735 25.165091"
           y="0"
           sodipodi:role="line"
           id="tspan462">31.725</tspan></text></g><g
       id="g466"><text
         transform="matrix(1,0,0,-1,342.028,600.859)"
         style="font-variant:normal;font-weight:normal;font-size:10.006px;font-family:'Liberation Sans';-inkscape-font-specification:LiberationSans;writing-mode:lr-tb;fill:#000000;fill-opacity:1;fill-rule:nonzero;stroke:none"
         id="text470"><tspan
           x="0 5.5933542 11.186708 13.978382 19.571735 25.165091"
           y="0"
           sodipodi:role="line"
           id="tspan468">30.828</tspan></text></g><g
       id="g472"><text
         transform="matrix(1,0,0,-1,411.619,600.859)"
         style="font-variant:normal;font-weight:normal;font-size:10.006px;font-family:'Liberation Sans';-inkscape-font-specification:LiberationSans;writing-mode:lr-tb;fill:#000000;fill-opacity:1;fill-rule:nonzero;stroke:none"
         id="text476"><tspan
           x="0 5.5933542 8.3850279 13.978382 19.571735"
           y="0"
           sodipodi:role="line"
           id="tspan474">0.972</tspan></text></g><g
       id="g478"><text
         transform="matrix(1,0,0,-1,57.685,588.075)"
         style="font-variant:normal;font-weight:normal;font-size:10.006px;font-family:'Liberation Sans';-inkscape-font-specification:LiberationSans;writing-mode:lr-tb;fill:#000000;fill-opacity:1;fill-rule:nonzero;stroke:none"
         id="text482"><tspan
           x="0 5.5933542 12.287368 18.391027 20.592348 26.185701 28.387022 33.980377 40.674389 46.267742 48.469063 50.670383 56.263737 61.857094"
           y="0"
           sodipodi:role="line"
           id="tspan480">bBFieldBuilder</tspan></text></g><g
       id="g484"><text
         transform="matrix(1,0,0,-1,276.406,588.075)"
         style="font-variant:normal;font-weight:normal;font-size:10.006px;font-family:'Liberation Sans';-inkscape-font-specification:LiberationSans;writing-mode:lr-tb;fill:#000000;fill-opacity:1;fill-rule:nonzero;stroke:none"
         id="text488"><tspan
           x="0 5.5933542 8.3850279 13.978382 19.571735"
           y="0"
           sodipodi:role="line"
           id="tspan486">7.809</tspan></text></g><g
       id="g490"><text
         transform="matrix(1,0,0,-1,347.641,588.075)"
         style="font-variant:normal;font-weight:normal;font-size:10.006px;font-family:'Liberation Sans';-inkscape-font-specification:LiberationSans;writing-mode:lr-tb;fill:#000000;fill-opacity:1;fill-rule:nonzero;stroke:none"
         id="text494"><tspan
           x="0 5.5933542 8.3850279 13.978382 19.571735"
           y="0"
           sodipodi:role="line"
           id="tspan492">7.331</tspan></text></g><g
       id="g496"><text
         transform="matrix(1,0,0,-1,411.619,588.075)"
         style="font-variant:normal;font-weight:normal;font-size:10.006px;font-family:'Liberation Sans';-inkscape-font-specification:LiberationSans;writing-mode:lr-tb;fill:#000000;fill-opacity:1;fill-rule:nonzero;stroke:none"
         id="text500"><tspan
           x="0 5.5933542 8.3850279 13.978382 19.571735"
           y="0"
           sodipodi:role="line"
           id="tspan498">0.939</tspan></text></g><g
       id="g502"><text
         transform="matrix(1,0,0,-1,57.685,575.291)"
         style="font-variant:normal;font-weight:normal;font-size:10.006px;font-family:'Liberation Sans';-inkscape-font-specification:LiberationSans;writing-mode:lr-tb;fill:#000000;fill-opacity:1;fill-rule:nonzero;stroke:none"
         id="text506"><tspan
           x="0 5.5933542 12.287368 20.082043 25.675396 31.268749 38.473068 44.066425 49.659779 55.253132 60.846485 66.439842 73.133858 79.827866 85.421219 87.622543 89.82386 95.417213 101.01057"
           y="0"
           sodipodi:role="line"
           id="tspan504">bBOneChangeBBuilder</tspan></text></g><g
       id="g508"><text
         transform="matrix(1,0,0,-1,276.406,575.291)"
         style="font-variant:normal;font-weight:normal;font-size:10.006px;font-family:'Liberation Sans';-inkscape-font-specification:LiberationSans;writing-mode:lr-tb;fill:#000000;fill-opacity:1;fill-rule:nonzero;stroke:none"
         id="text512"><tspan
           x="0 5.5933542 8.3850279 13.978382 19.571735"
           y="0"
           sodipodi:role="line"
           id="tspan510">7.777</tspan></text></g><g
       id="g514"><text
         transform="matrix(1,0,0,-1,347.641,575.291)"
         style="font-variant:normal;font-weight:normal;font-size:10.006px;font-family:'Liberation Sans';-inkscape-font-specification:LiberationSans;writing-mode:lr-tb;fill:#000000;fill-opacity:1;fill-rule:nonzero;stroke:none"
         id="text518"><tspan
           x="0 5.5933542 8.3850279 13.978382 19.571735"
           y="0"
           sodipodi:role="line"
           id="tspan516">7.738</tspan></text></g><g
       id="g520"><text
         transform="matrix(1,0,0,-1,411.619,575.291)"
         style="font-variant:normal;font-weight:normal;font-size:10.006px;font-family:'Liberation Sans';-inkscape-font-specification:LiberationSans;writing-mode:lr-tb;fill:#000000;fill-opacity:1;fill-rule:nonzero;stroke:none"
         id="text524"><tspan
           x="0 5.5933542 8.3850279 13.978382 19.571735"
           y="0"
           sodipodi:role="line"
           id="tspan522">0.995</tspan></text></g><g
       id="g526"><text
         transform="matrix(1,0,0,-1,57.685,562.506)"
         style="font-variant:normal;font-weight:normal;font-size:10.006px;font-family:'Liberation Sans';-inkscape-font-specification:LiberationSans;writing-mode:lr-tb;fill:#000000;fill-opacity:1;fill-rule:nonzero;stroke:none"
         id="text530"><tspan
           x="0 5.5933542 12.287368 18.391027 23.984383 29.577736 34.580734 37.37241 39.57373 45.167084 50.760437 56.35379 58.555111 65.249123 70.842484 76.435837 78.637154 83.640152 90.844475 96.437828 102.03118 107.62453 113.21789 118.81124"
           y="0"
           sodipodi:role="line"
           id="tspan528">bXFunctionalApplyChanges</tspan></text></g><g
       id="g532"><text
         transform="matrix(1,0,0,-1,270.794,562.506)"
         style="font-variant:normal;font-weight:normal;font-size:10.006px;font-family:'Liberation Sans';-inkscape-font-specification:LiberationSans;writing-mode:lr-tb;fill:#000000;fill-opacity:1;fill-rule:nonzero;stroke:none"
         id="text536"><tspan
           x="0 5.5933542 11.186708 13.978382 19.571735 25.165091"
           y="0"
           sodipodi:role="line"
           id="tspan534">53.575</tspan></text></g><g
       id="g538"><text
         transform="matrix(1,0,0,-1,342.028,562.506)"
         style="font-variant:normal;font-weight:normal;font-size:10.006px;font-family:'Liberation Sans';-inkscape-font-specification:LiberationSans;writing-mode:lr-tb;fill:#000000;fill-opacity:1;fill-rule:nonzero;stroke:none"
         id="text542"><tspan
           x="0 5.5933542 11.186708 13.978382 19.571735 25.165091"
           y="0"
           sodipodi:role="line"
           id="tspan540">55.487</tspan></text></g><g
       id="g544"><text
         transform="matrix(1,0,0,-1,411.619,562.506)"
         style="font-variant:normal;font-weight:normal;font-size:10.006px;font-family:'Liberation Sans';-inkscape-font-specification:LiberationSans;writing-mode:lr-tb;fill:#000000;fill-opacity:1;fill-rule:nonzero;stroke:none"
         id="text548"><tspan
           x="0 5.5933542 8.3850279 13.978382 19.571735"
           y="0"
           sodipodi:role="line"
           id="tspan546">1.036</tspan></text></g><g
       id="g550"><text
         transform="matrix(1,0,0,-1,57.685,549.722)"
         style="font-variant:normal;font-weight:normal;font-size:10.006px;font-family:'Liberation Sans';-inkscape-font-specification:LiberationSans;writing-mode:lr-tb;fill:#000000;fill-opacity:1;fill-rule:nonzero;stroke:none"
         id="text554"><tspan
           x="0 5.5933542 12.287368 18.391027 23.984383 29.577736 34.580734 37.37241 39.57373 45.167084 50.760437 56.35379 58.555111 65.75943 71.352783 76.946136 81.949142 84.740814 88.042793 93.636147 98.639145"
           y="0"
           sodipodi:role="line"
           id="tspan552">bXFunctionalConstruct</tspan></text></g><g
       id="g556"><text
         transform="matrix(1,0,0,-1,265.209,549.722)"
         style="font-variant:normal;font-weight:normal;font-size:10.006px;font-family:'Liberation Sans';-inkscape-font-specification:LiberationSans;writing-mode:lr-tb;fill:#000000;fill-opacity:1;fill-rule:nonzero;stroke:none"
         id="text560"><tspan
           x="0 5.5933542 11.186708 16.780062 19.571735 25.165091 30.758444"
           y="0"
           sodipodi:role="line"
           id="tspan558">184.142</tspan></text></g><g
       id="g562"><text
         transform="matrix(1,0,0,-1,330.831,549.722)"
         style="font-variant:normal;font-weight:normal;font-size:10.006px;font-family:'Liberation Sans';-inkscape-font-specification:LiberationSans;writing-mode:lr-tb;fill:#000000;fill-opacity:1;fill-rule:nonzero;stroke:none"
         id="text566"><tspan
           x="0 5.5933542 11.186708 16.780062 22.373417 25.165091 30.758444 36.351799"
           y="0"
           sodipodi:role="line"
           id="tspan564">2541.099</tspan></text></g><g
       id="g568"><text
         transform="matrix(1,0,0,-1,406.006,549.722)"
         style="font-variant:normal;font-weight:normal;font-size:10.006px;font-family:'Liberation Sans';-inkscape-font-specification:LiberationSans;writing-mode:lr-tb;fill:#000000;fill-opacity:1;fill-rule:nonzero;stroke:none"
         id="text572"><tspan
           x="0 5.5933542 11.186708 13.978382 19.571735 25.165091"
           y="0"
           sodipodi:role="line"
           id="tspan570">13.800</tspan></text></g><g
       id="g574"><text
         transform="matrix(1,0,0,-1,57.685,536.938)"
         style="font-variant:normal;font-weight:normal;font-size:10.006px;font-family:'Liberation Sans';-inkscape-font-specification:LiberationSans;writing-mode:lr-tb;fill:#000000;fill-opacity:1;fill-rule:nonzero;stroke:none"
         id="text578"><tspan
           x="0 5.5933542 12.287368 18.391027 23.984383 29.577736 34.580734 37.37241 39.57373 45.167084 50.760437 56.35379 58.555111 65.75943 71.352783 76.355789 81.949142 87.542496 92.545494 95.337166 98.639145 104.23251 109.2355"
           y="0"
           sodipodi:role="line"
           id="tspan576">bXFunctionalDeconstruct</tspan></text></g><g
       id="g580"><text
         transform="matrix(1,0,0,-1,270.794,536.938)"
         style="font-variant:normal;font-weight:normal;font-size:10.006px;font-family:'Liberation Sans';-inkscape-font-specification:LiberationSans;writing-mode:lr-tb;fill:#000000;fill-opacity:1;fill-rule:nonzero;stroke:none"
         id="text584"><tspan
           x="0 5.5933542 11.186708 13.978382 19.571735 25.165091"
           y="0"
           sodipodi:role="line"
           id="tspan582">60.105</tspan></text></g><g
       id="g586"><text
         transform="matrix(1,0,0,-1,342.028,536.938)"
         style="font-variant:normal;font-weight:normal;font-size:10.006px;font-family:'Liberation Sans';-inkscape-font-specification:LiberationSans;writing-mode:lr-tb;fill:#000000;fill-opacity:1;fill-rule:nonzero;stroke:none"
         id="text590"><tspan
           x="0 5.5933542 11.186708 13.978382 19.571735 25.165091"
           y="0"
           sodipodi:role="line"
           id="tspan588">59.801</tspan></text></g><g
       id="g592"><text
         transform="matrix(1,0,0,-1,411.619,536.938)"
         style="font-variant:normal;font-weight:normal;font-size:10.006px;font-family:'Liberation Sans';-inkscape-font-specification:LiberationSans;writing-mode:lr-tb;fill:#000000;fill-opacity:1;fill-rule:nonzero;stroke:none"
         id="text596"><tspan
           x="0 5.5933542 8.3850279 13.978382 19.571735"
           y="0"
           sodipodi:role="line"
           id="tspan594">0.995</tspan></text></g></g></svg>
