<?xml version="1.0" encoding="UTF-8"?>
<!DOCTYPE svg PUBLIC "-//W3C//DTD SVG 1.1//EN" "http://www.w3.org/Graphics/SVG/1.1/DTD/svg11.dtd">
<svg width="201mm" height="116mm" viewBox="0 0 20100 11600" version="1.1" xmlns="http://www.w3.org/2000/svg" xmlns:xlink="http://www.w3.org/1999/xlink" stroke-width="28.222" stroke-linejoin="round" xml:space="preserve">
 <path fill="rgb(255,255,255)" stroke="none" d="M 10015,11568 L -13,11568 -13,-13 20042,-13 20042,11568 10015,11568 Z"/>
 <path fill="none" stroke="rgb(179,179,179)" stroke-linejoin="round" d="M 11808,9709 L 6121,9709 6121,2278 17495,2278 17495,9709 11808,9709 Z"/>
 <path fill="none" stroke="rgb(179,179,179)" stroke-linejoin="round" d="M 6121,2277 L 6121,9708"/>
 <path fill="none" stroke="rgb(179,179,179)" stroke-linejoin="round" d="M 7542,2277 L 7542,9708"/>
 <path fill="none" stroke="rgb(179,179,179)" stroke-linejoin="round" d="M 8964,2277 L 8964,9708"/>
 <path fill="none" stroke="rgb(179,179,179)" stroke-linejoin="round" d="M 10385,2277 L 10385,9708"/>
 <path fill="none" stroke="rgb(179,179,179)" stroke-linejoin="round" d="M 11807,2277 L 11807,9708"/>
 <path fill="none" stroke="rgb(179,179,179)" stroke-linejoin="round" d="M 13229,2277 L 13229,9708"/>
 <path fill="none" stroke="rgb(179,179,179)" stroke-linejoin="round" d="M 14651,2277 L 14651,9708"/>
 <path fill="none" stroke="rgb(179,179,179)" stroke-linejoin="round" d="M 16073,2277 L 16073,9708"/>
 <path fill="none" stroke="rgb(179,179,179)" stroke-linejoin="round" d="M 17495,2277 L 17495,9708"/>
 <path fill="none" stroke="rgb(179,179,179)" stroke-linejoin="round" d="M 5971,9708 L 6121,9708"/>
 <path fill="none" stroke="rgb(179,179,179)" stroke-linejoin="round" d="M 5971,9708 L 6121,9708"/>
 <path fill="none" stroke="rgb(179,179,179)" stroke-linejoin="round" d="M 5971,9270 L 6121,9270"/>
 <path fill="none" stroke="rgb(179,179,179)" stroke-linejoin="round" d="M 5971,9270 L 6121,9270"/>
 <path fill="none" stroke="rgb(179,179,179)" stroke-linejoin="round" d="M 5971,8833 L 6121,8833"/>
 <path fill="none" stroke="rgb(179,179,179)" stroke-linejoin="round" d="M 5971,8833 L 6121,8833"/>
 <path fill="none" stroke="rgb(179,179,179)" stroke-linejoin="round" d="M 5971,8396 L 6121,8396"/>
 <path fill="none" stroke="rgb(179,179,179)" stroke-linejoin="round" d="M 5971,8396 L 6121,8396"/>
 <path fill="none" stroke="rgb(179,179,179)" stroke-linejoin="round" d="M 5971,7959 L 6121,7959"/>
 <path fill="none" stroke="rgb(179,179,179)" stroke-linejoin="round" d="M 5971,7959 L 6121,7959"/>
 <path fill="none" stroke="rgb(179,179,179)" stroke-linejoin="round" d="M 5971,7522 L 6121,7522"/>
 <path fill="none" stroke="rgb(179,179,179)" stroke-linejoin="round" d="M 5971,7522 L 6121,7522"/>
 <path fill="none" stroke="rgb(179,179,179)" stroke-linejoin="round" d="M 5971,7084 L 6121,7084"/>
 <path fill="none" stroke="rgb(179,179,179)" stroke-linejoin="round" d="M 5971,7084 L 6121,7084"/>
 <path fill="none" stroke="rgb(179,179,179)" stroke-linejoin="round" d="M 5971,6647 L 6121,6647"/>
 <path fill="none" stroke="rgb(179,179,179)" stroke-linejoin="round" d="M 5971,6647 L 6121,6647"/>
 <path fill="none" stroke="rgb(179,179,179)" stroke-linejoin="round" d="M 5971,6210 L 6121,6210"/>
 <path fill="none" stroke="rgb(179,179,179)" stroke-linejoin="round" d="M 5971,6210 L 6121,6210"/>
 <path fill="none" stroke="rgb(179,179,179)" stroke-linejoin="round" d="M 5971,5774 L 6121,5774"/>
 <path fill="none" stroke="rgb(179,179,179)" stroke-linejoin="round" d="M 5971,5774 L 6121,5774"/>
 <path fill="none" stroke="rgb(179,179,179)" stroke-linejoin="round" d="M 5971,5337 L 6121,5337"/>
 <path fill="none" stroke="rgb(179,179,179)" stroke-linejoin="round" d="M 5971,5337 L 6121,5337"/>
 <path fill="none" stroke="rgb(179,179,179)" stroke-linejoin="round" d="M 5971,4900 L 6121,4900"/>
 <path fill="none" stroke="rgb(179,179,179)" stroke-linejoin="round" d="M 5971,4900 L 6121,4900"/>
 <path fill="none" stroke="rgb(179,179,179)" stroke-linejoin="round" d="M 5971,4462 L 6121,4462"/>
 <path fill="none" stroke="rgb(179,179,179)" stroke-linejoin="round" d="M 5971,4462 L 6121,4462"/>
 <path fill="none" stroke="rgb(179,179,179)" stroke-linejoin="round" d="M 5971,4025 L 6121,4025"/>
 <path fill="none" stroke="rgb(179,179,179)" stroke-linejoin="round" d="M 5971,4025 L 6121,4025"/>
 <path fill="none" stroke="rgb(179,179,179)" stroke-linejoin="round" d="M 5971,3588 L 6121,3588"/>
 <path fill="none" stroke="rgb(179,179,179)" stroke-linejoin="round" d="M 5971,3588 L 6121,3588"/>
 <path fill="none" stroke="rgb(179,179,179)" stroke-linejoin="round" d="M 5971,3151 L 6121,3151"/>
 <path fill="none" stroke="rgb(179,179,179)" stroke-linejoin="round" d="M 5971,3151 L 6121,3151"/>
 <path fill="none" stroke="rgb(179,179,179)" stroke-linejoin="round" d="M 5971,2714 L 6121,2714"/>
 <path fill="none" stroke="rgb(179,179,179)" stroke-linejoin="round" d="M 5971,2714 L 6121,2714"/>
 <path fill="none" stroke="rgb(179,179,179)" stroke-linejoin="round" d="M 5971,2277 L 6121,2277"/>
 <path fill="none" stroke="rgb(179,179,179)" stroke-linejoin="round" d="M 5971,2277 L 6121,2277"/>
 <path fill="none" stroke="rgb(179,179,179)" stroke-linejoin="round" d="M 6121,9708 L 6121,2277"/>
 <path fill="none" stroke="rgb(179,179,179)" stroke-linejoin="round" d="M 6121,9858 L 6121,9708"/>
 <path fill="none" stroke="rgb(179,179,179)" stroke-linejoin="round" d="M 6121,9858 L 6121,9708"/>
 <path fill="none" stroke="rgb(179,179,179)" stroke-linejoin="round" d="M 7542,9858 L 7542,9708"/>
 <path fill="none" stroke="rgb(179,179,179)" stroke-linejoin="round" d="M 7542,9858 L 7542,9708"/>
 <path fill="none" stroke="rgb(179,179,179)" stroke-linejoin="round" d="M 8964,9858 L 8964,9708"/>
 <path fill="none" stroke="rgb(179,179,179)" stroke-linejoin="round" d="M 8964,9858 L 8964,9708"/>
 <path fill="none" stroke="rgb(179,179,179)" stroke-linejoin="round" d="M 10385,9858 L 10385,9708"/>
 <path fill="none" stroke="rgb(179,179,179)" stroke-linejoin="round" d="M 10385,9858 L 10385,9708"/>
 <path fill="none" stroke="rgb(179,179,179)" stroke-linejoin="round" d="M 11807,9858 L 11807,9708"/>
 <path fill="none" stroke="rgb(179,179,179)" stroke-linejoin="round" d="M 11807,9858 L 11807,9708"/>
 <path fill="none" stroke="rgb(179,179,179)" stroke-linejoin="round" d="M 13229,9858 L 13229,9708"/>
 <path fill="none" stroke="rgb(179,179,179)" stroke-linejoin="round" d="M 13229,9858 L 13229,9708"/>
 <path fill="none" stroke="rgb(179,179,179)" stroke-linejoin="round" d="M 14651,9858 L 14651,9708"/>
 <path fill="none" stroke="rgb(179,179,179)" stroke-linejoin="round" d="M 14651,9858 L 14651,9708"/>
 <path fill="none" stroke="rgb(179,179,179)" stroke-linejoin="round" d="M 16073,9858 L 16073,9708"/>
 <path fill="none" stroke="rgb(179,179,179)" stroke-linejoin="round" d="M 16073,9858 L 16073,9708"/>
 <path fill="none" stroke="rgb(179,179,179)" stroke-linejoin="round" d="M 17495,9858 L 17495,9708"/>
 <path fill="none" stroke="rgb(179,179,179)" stroke-linejoin="round" d="M 17495,9858 L 17495,9708"/>
 <path fill="none" stroke="rgb(179,179,179)" stroke-linejoin="round" d="M 6121,9708 L 17495,9708"/>
 <path fill="rgb(0,69,134)" stroke="none" d="M 6121,9598 L 6121,9380 6274,9380 6274,9598 6121,9598 Z"/>
 <path fill="rgb(0,69,134)" stroke="none" d="M 6121,9161 L 6121,8942 8361,8942 8361,9161 6121,9161 Z"/>
 <path fill="rgb(0,69,134)" stroke="none" d="M 6121,8724 L 6121,8505 10463,8505 10463,8724 6121,8724 Z"/>
 <path fill="rgb(0,69,134)" stroke="none" d="M 6121,8287 L 6121,8068 13739,8068 13739,8287 6121,8287 Z"/>
 <path fill="rgb(0,69,134)" stroke="none" d="M 6121,7850 L 6121,7631 16814,7631 16814,7850 6121,7850 Z"/>
 <path fill="rgb(0,69,134)" stroke="none" d="M 6121,7412 L 6121,7194 13978,7194 13978,7412 6121,7412 Z"/>
 <path fill="rgb(0,69,134)" stroke="none" d="M 6121,6975 L 6121,6757 7182,6757 7182,6975 6121,6975 Z"/>
 <path fill="rgb(0,69,134)" stroke="none" d="M 6121,6538 L 6121,6319 13952,6319 13952,6538 6121,6538 Z"/>
 <path fill="rgb(0,69,134)" stroke="none" d="M 6121,6101 L 6121,5882 16206,5882 16206,6101 6121,6101 Z"/>
 <path fill="rgb(0,69,134)" stroke="none" d="M 6121,5665 L 6121,5446 10073,5446 10073,5665 6121,5665 Z"/>
 <path fill="rgb(0,69,134)" stroke="none" d="M 6121,5227 L 6121,5009 7276,5009 7276,5227 6121,5227 Z"/>
 <path fill="rgb(0,69,134)" stroke="none" d="M 6121,4790 L 6121,4572 7023,4572 7023,4790 6121,4790 Z"/>
 <path fill="rgb(0,69,134)" stroke="none" d="M 6121,4353 L 6121,4135 6343,4135 6343,4353 6121,4353 Z"/>
 <path fill="rgb(0,69,134)" stroke="none" d="M 6121,3916 L 6121,3697 6342,3697 6342,3916 6121,3916 Z"/>
 <path fill="rgb(0,69,134)" stroke="none" d="M 6121,3479 L 6121,3260 7644,3260 7644,3479 6121,3479 Z"/>
 <path fill="rgb(0,69,134)" stroke="none" d="M 6121,3042 L 6121,2823 11356,2823 11356,3042 6121,3042 Z"/>
 <path fill="rgb(0,69,134)" stroke="none" d="M 6121,2604 L 6121,2386 7830,2386 7830,2604 6121,2604 Z"/>
 <text class="SVGTextShape"><tspan class="TextParagraph" font-family="Liberation Sans, sans-serif" font-size="353px" font-weight="400"><tspan class="TextPosition" x="1505" y="9609"><tspan fill="rgb(0,0,0)" stroke="none" style="white-space: pre">b1oneChangeSpecialMethod</tspan></tspan></tspan></text>
 <text class="SVGTextShape"><tspan class="TextParagraph" font-family="Liberation Sans, sans-serif" font-size="353px" font-weight="400"><tspan class="TextPosition" x="3543" y="9172"><tspan fill="rgb(0,0,0)" stroke="none" style="white-space: pre">b2FasterWither</tspan></tspan></tspan></text>
 <text class="SVGTextShape"><tspan class="TextParagraph" font-family="Liberation Sans, sans-serif" font-size="353px" font-weight="400"><tspan class="TextPosition" x="3966" y="8735"><tspan fill="rgb(0,0,0)" stroke="none" style="white-space: pre">b3Reflection</tspan></tspan></tspan></text>
 <text class="SVGTextShape"><tspan class="TextParagraph" font-family="Liberation Sans, sans-serif" font-size="353px" font-weight="400"><tspan class="TextPosition" x="2246" y="8297"><tspan fill="rgb(0,0,0)" stroke="none" style="white-space: pre">b4oneChangeReflection</tspan></tspan></tspan></text>
 <text class="SVGTextShape"><tspan class="TextParagraph" font-family="Liberation Sans, sans-serif" font-size="353px" font-weight="400"><tspan class="TextPosition" x="3119" y="7860"><tspan fill="rgb(0,0,0)" stroke="none" style="white-space: pre">b5MethodHandles</tspan></tspan></tspan></text>
 <text class="SVGTextShape"><tspan class="TextParagraph" font-family="Liberation Sans, sans-serif" font-size="353px" font-weight="400"><tspan class="TextPosition" x="1400" y="7423"><tspan fill="rgb(0,0,0)" stroke="none" style="white-space: pre">b6oneChangeMethodHandles</tspan></tspan></tspan></text>
 <text class="SVGTextShape"><tspan class="TextParagraph" font-family="Liberation Sans, sans-serif" font-size="353px" font-weight="400"><tspan class="TextPosition" x="2802" y="6986"><tspan fill="rgb(0,0,0)" stroke="none" style="white-space: pre">b7oneChangeFaster</tspan></tspan></tspan></text>
 <text class="SVGTextShape"><tspan class="TextParagraph" font-family="Liberation Sans, sans-serif" font-size="353px" font-weight="400"><tspan class="TextPosition" x="2378" y="6549"><tspan fill="rgb(0,0,0)" stroke="none" style="white-space: pre">b8onChangeFunctional</tspan></tspan></tspan></text>
 <text class="SVGTextShape"><tspan class="TextParagraph" font-family="Liberation Sans, sans-serif" font-size="353px" font-weight="400"><tspan class="TextPosition" x="3913" y="6112"><tspan fill="rgb(0,0,0)" stroke="none" style="white-space: pre">b9Functional</tspan></tspan></tspan></text>
 <text class="SVGTextShape"><tspan class="TextParagraph" font-family="Liberation Sans, sans-serif" font-size="353px" font-weight="400"><tspan class="TextPosition" x="4522" y="5675"><tspan fill="rgb(0,0,0)" stroke="none" style="white-space: pre">b9Hybrid</tspan></tspan></tspan></text>
 <text class="SVGTextShape"><tspan class="TextParagraph" font-family="Liberation Sans, sans-serif" font-size="353px" font-weight="400"><tspan class="TextPosition" x="3569" y="5238"><tspan fill="rgb(0,0,0)" stroke="none" style="white-space: pre">bAArrayBuilder</tspan></tspan></tspan></text>
 <text class="SVGTextShape"><tspan class="TextParagraph" font-family="Liberation Sans, sans-serif" font-size="353px" font-weight="400"><tspan class="TextPosition" x="2352" y="4801"><tspan fill="rgb(0,0,0)" stroke="none" style="white-space: pre">bAOneChangeABuilder</tspan></tspan></tspan></text>
 <text class="SVGTextShape"><tspan class="TextParagraph" font-family="Liberation Sans, sans-serif" font-size="353px" font-weight="400"><tspan class="TextPosition" x="3648" y="4364"><tspan fill="rgb(0,0,0)" stroke="none" style="white-space: pre">bBFieldBuilder</tspan></tspan></tspan></text>
 <text class="SVGTextShape"><tspan class="TextParagraph" font-family="Liberation Sans, sans-serif" font-size="353px" font-weight="400"><tspan class="TextPosition" x="2352" y="3927"><tspan fill="rgb(0,0,0)" stroke="none" style="white-space: pre">bBOneChangeBBuilder</tspan></tspan></tspan></text>
 <text class="SVGTextShape"><tspan class="TextParagraph" font-family="Liberation Sans, sans-serif" font-size="353px" font-weight="400"><tspan class="TextPosition" x="1638" y="3489"><tspan fill="rgb(0,0,0)" stroke="none" style="white-space: pre">bXFunctionalApplyChanges</tspan></tspan></tspan></text>
 <text class="SVGTextShape"><tspan class="TextParagraph" font-family="Liberation Sans, sans-serif" font-size="353px" font-weight="400"><tspan class="TextPosition" x="2378" y="3052"><tspan fill="rgb(0,0,0)" stroke="none" style="white-space: pre">bXFunctionalConstruct</tspan></tspan></tspan></text>
 <text class="SVGTextShape"><tspan class="TextParagraph" font-family="Liberation Sans, sans-serif" font-size="353px" font-weight="400"><tspan class="TextPosition" x="2008" y="2615"><tspan fill="rgb(0,0,0)" stroke="none" style="white-space: pre">bXFunctionalDeconstruct</tspan></tspan></tspan></text>
 <text class="SVGTextShape"><tspan class="TextParagraph" font-family="Liberation Sans, sans-serif" font-size="353px" font-weight="400"><tspan class="TextPosition" x="6028" y="10276"><tspan fill="rgb(0,0,0)" stroke="none" style="white-space: pre">0</tspan></tspan></tspan></text>
 <text class="SVGTextShape"><tspan class="TextParagraph" font-family="Liberation Sans, sans-serif" font-size="353px" font-weight="400"><tspan class="TextPosition" x="7357" y="10276"><tspan fill="rgb(0,0,0)" stroke="none" style="white-space: pre">50</tspan></tspan></tspan></text>
 <text class="SVGTextShape"><tspan class="TextParagraph" font-family="Liberation Sans, sans-serif" font-size="353px" font-weight="400"><tspan class="TextPosition" x="8686" y="10276"><tspan fill="rgb(0,0,0)" stroke="none" style="white-space: pre">100</tspan></tspan></tspan></text>
 <text class="SVGTextShape"><tspan class="TextParagraph" font-family="Liberation Sans, sans-serif" font-size="353px" font-weight="400"><tspan class="TextPosition" x="10107" y="10276"><tspan fill="rgb(0,0,0)" stroke="none" style="white-space: pre">150</tspan></tspan></tspan></text>
 <text class="SVGTextShape"><tspan class="TextParagraph" font-family="Liberation Sans, sans-serif" font-size="353px" font-weight="400"><tspan class="TextPosition" x="11529" y="10276"><tspan fill="rgb(0,0,0)" stroke="none" style="white-space: pre">200</tspan></tspan></tspan></text>
 <text class="SVGTextShape"><tspan class="TextParagraph" font-family="Liberation Sans, sans-serif" font-size="353px" font-weight="400"><tspan class="TextPosition" x="12951" y="10276"><tspan fill="rgb(0,0,0)" stroke="none" style="white-space: pre">250</tspan></tspan></tspan></text>
 <text class="SVGTextShape"><tspan class="TextParagraph" font-family="Liberation Sans, sans-serif" font-size="353px" font-weight="400"><tspan class="TextPosition" x="14373" y="10276"><tspan fill="rgb(0,0,0)" stroke="none" style="white-space: pre">300</tspan></tspan></tspan></text>
 <text class="SVGTextShape"><tspan class="TextParagraph" font-family="Liberation Sans, sans-serif" font-size="353px" font-weight="400"><tspan class="TextPosition" x="15795" y="10276"><tspan fill="rgb(0,0,0)" stroke="none" style="white-space: pre">350</tspan></tspan></tspan></text>
 <text class="SVGTextShape"><tspan class="TextParagraph" font-family="Liberation Sans, sans-serif" font-size="353px" font-weight="400"><tspan class="TextPosition" x="17217" y="10276"><tspan fill="rgb(0,0,0)" stroke="none" style="white-space: pre">400</tspan></tspan></tspan></text>
 <text class="SVGTextShape"><tspan class="TextParagraph" font-family="Liberation Sans, sans-serif" font-size="459px" font-weight="400"><tspan class="TextPosition" x="8361" y="889"><tspan fill="rgb(0,0,0)" stroke="none" style="white-space: pre">Fastest versions</tspan></tspan></tspan></text>
 <text class="SVGTextShape"><tspan class="TextParagraph" font-family="Liberation Sans, sans-serif" font-size="388px" font-weight="400"><tspan class="TextPosition" x="8970" y="1850"><tspan fill="rgb(0,0,0)" stroke="none" style="white-space: pre">cached only</tspan></tspan></tspan></text>
 <path fill="rgb(0,69,134)" stroke="none" d="M 18398,5882 L 18292,5882 18292,5672 18503,5672 18503,5882 18398,5882 Z"/>
 <text class="SVGTextShape"><tspan class="TextParagraph" font-family="Liberation Sans, sans-serif" font-size="353px" font-weight="400"><tspan class="TextPosition" x="18603" y="5896"><tspan fill="rgb(0,0,0)" stroke="none" style="white-space: pre">cached</tspan></tspan></tspan></text>
 <text class="SVGTextShape"><tspan class="TextParagraph" font-family="Liberation Sans, sans-serif" font-size="318px" font-weight="400"><tspan class="TextPosition" x="9190" y="10973"><tspan fill="rgb(0,0,0)" stroke="none" style="white-space: pre">ns/op</tspan></tspan></tspan></text>
 <text class="SVGTextShape" transform="rotate(-90 -23205 -10353)"><tspan class="TextParagraph" font-family="Liberation Sans, sans-serif" font-size="318px" font-weight="400"><tspan class="TextPosition" x="824" y="6805"><tspan fill="rgb(0,0,0)" stroke="none" style="white-space: pre">variant</tspan></tspan></tspan></text>
</svg>